<svg width="250" height="189" viewBox="0 0 250 189" fill="none" xmlns="http://www.w3.org/2000/svg">
<path d="M107.415 15.442L102.001 6" stroke="#5724B1" stroke-width="12" stroke-miterlimit="10" stroke-linecap="round" stroke-linejoin="round"/>
<path d="M142.615 15.442L148.028 6" stroke="#5724B1" stroke-width="12" stroke-miterlimit="10" stroke-linecap="round" stroke-linejoin="round"/>
<path fill-rule="evenodd" clip-rule="evenodd" d="M104.53 55.2932C106.682 45.9268 115.058 38.9473 125.03 38.9473C134.997 38.9473 143.37 45.921 145.526 55.2815C137.026 57.5813 129.779 62.9408 125.025 70.1032C120.268 62.9516 113.025 57.5992 104.53 55.2932ZM92.5363 54.0449C95.3549 38.6436 108.827 26.9473 125.03 26.9473C141.232 26.9473 154.705 38.6436 157.523 54.0449H243.999C247.257 54.0449 249.919 56.6448 249.997 59.9019C249.363 59.917 248.809 59.9302 248.328 59.9416C247.261 59.965 246.012 59.9946 245.65 60.0037C245.286 60.0128 245.818 60.0011 248.328 59.9416C249.227 59.9219 249.997 59.9066 249.997 59.9117L249.998 59.9229L249.998 59.9492L249.999 60.0174C250 60.0698 250 60.136 250 60.2154C250 60.3744 249.997 60.5868 249.99 60.8491C249.975 61.3735 249.94 62.0989 249.861 62.9968C249.703 64.7904 249.368 67.2856 248.665 70.2497C247.258 76.1744 244.359 84.0413 238.391 91.8959C232.737 99.3376 224.553 106.486 212.813 111.999C217.564 124.602 219.336 138.932 217.105 155.133C216.769 157.569 214.981 159.554 212.592 160.141L211.161 154.314C212.592 160.141 212.588 160.142 212.585 160.142L212.577 160.144L212.557 160.149L212.503 160.162C212.46 160.172 212.405 160.185 212.336 160.201C212.199 160.232 212.011 160.273 211.774 160.323C211.301 160.421 210.632 160.551 209.785 160.693C208.093 160.976 205.686 161.307 202.714 161.523C196.78 161.954 188.522 161.935 179.164 160.135C172.35 158.823 164.983 156.57 157.537 152.895C152.781 165.567 144.007 179.032 127.981 188.207C126.134 189.265 123.866 189.265 122.019 188.207C106.001 179.037 97.2277 165.58 92.4704 152.914C85.0377 156.578 77.6854 158.826 70.8849 160.135C61.5283 161.935 53.273 161.954 47.3412 161.523C44.3697 161.307 41.9638 160.976 40.2726 160.693C39.4265 160.551 38.7575 160.421 38.2841 160.323C38.0474 160.273 37.8594 160.232 37.7225 160.201C37.654 160.185 37.5983 160.172 37.5556 160.162L37.5014 160.149L37.4817 160.144L37.4737 160.142C37.4702 160.141 37.4669 160.141 38.8984 154.314L37.4669 160.141C35.0799 159.554 33.2919 157.571 32.955 155.136C30.7143 138.942 32.4804 124.617 37.2265 112.017C25.4651 106.502 17.2697 99.3459 11.6089 91.8959C5.64076 84.0413 2.74178 76.1744 1.33537 70.2497C0.631734 67.2856 0.297314 64.7904 0.139283 62.9968C0.0601745 62.0989 0.0249691 61.3735 0.0100756 60.8491C0.00262545 60.5868 0.000246989 60.3744 1.85843e-05 60.2155C-9.53797e-05 60.136 0.000328052 60.0698 0.000925529 60.0174L0.00190734 59.9492L0.00241088 59.9229L0.0026512 59.9117C0.00276517 59.9067 0.00287819 59.9019 6.00117 60.0449L0.00287818 59.9019C0.0805392 56.6448 2.74319 54.0449 6.00117 54.0449H92.5363ZM42.2795 101.131C32.1145 96.3486 25.502 90.3456 21.1636 84.6359C16.4102 78.38 14.1167 72.1364 13.0109 67.4782C12.8929 66.9809 12.7886 66.5025 12.6964 66.0449H75.7669C64.8947 73.4465 55.1404 82.2572 47.6025 92.7535C45.6716 95.4423 43.8919 98.2341 42.2795 101.131ZM53.6391 105.44C54.7896 103.487 56.029 101.592 57.3495 99.7532C67.302 85.8945 82.0703 74.9409 98.8494 66.3351C110.268 68.1311 119.03 78.0477 119.03 90.0194C119.03 93.3331 121.716 96.0194 125.03 96.0194C128.344 96.0194 131.03 93.3331 131.03 90.0194C131.03 78.0243 139.795 68.108 151.198 66.3291C167.981 74.9353 182.747 85.8906 192.698 99.7524C194.016 101.588 195.253 103.479 196.401 105.428C186.093 108.528 173.15 110.487 156.881 110.487C155.183 110.487 153.565 111.206 152.427 112.466C151.291 113.724 150.741 115.404 150.911 117.09L150.912 117.098L150.916 117.149C150.922 117.208 150.93 117.309 150.941 117.45C150.962 117.731 150.99 118.169 151.015 118.748C151.066 119.908 151.103 121.624 151.041 123.763C150.959 126.59 150.704 130.123 150.089 134.065C143.058 128.52 136.23 121.082 130.148 111.138C129.058 109.355 127.12 108.268 125.031 108.268C122.942 108.268 121.003 109.354 119.912 111.136C113.812 121.102 106.964 128.55 99.9166 134.099C99.2972 130.143 99.0413 126.598 98.959 123.763C98.8968 121.624 98.9341 119.908 98.9846 118.748C99.0099 118.169 99.0385 117.731 99.0594 117.45C99.0635 117.394 99.0674 117.345 99.0708 117.301C99.0761 117.236 99.0805 117.185 99.0837 117.149L99.0883 117.098L99.0893 117.087C99.2588 115.402 98.7081 113.723 97.5728 112.466C96.4352 111.206 94.817 110.487 93.1194 110.487C76.871 110.487 63.94 108.533 53.6391 105.44ZM48.4075 116.376C44.8063 125.997 43.2269 136.854 44.3452 149.167C45.4422 149.309 46.74 149.447 48.2118 149.554C53.3408 149.928 60.5117 149.911 68.6169 148.351C74.9891 147.124 81.9746 144.941 89.0377 141.195C87.5929 134.535 87.0931 128.556 86.964 124.112C86.9466 123.512 86.9359 122.938 86.9306 122.394C71.5972 121.928 58.9035 119.73 48.4075 116.376ZM102.998 146.731C106.565 157.21 113.105 168.128 125 175.962C136.905 168.122 143.446 157.191 147.011 146.705C139.355 141.417 131.853 134.374 125.028 125.047C118.187 134.39 110.669 141.441 102.998 146.731ZM160.967 141.173C168.044 144.933 175.045 147.122 181.431 148.351C189.538 149.911 196.712 149.928 201.844 149.554C203.316 149.447 204.614 149.309 205.711 149.167C206.823 136.848 205.239 125.987 201.634 116.363C191.13 119.724 178.423 121.928 163.069 122.394C163.064 122.938 163.053 123.512 163.036 124.112C162.907 128.551 162.408 134.522 160.967 141.173ZM207.758 101.114C217.902 96.334 224.503 90.3386 228.836 84.6359C233.59 78.38 235.883 72.1364 236.989 67.4782C237.107 66.9809 237.211 66.5025 237.304 66.0449H174.29C185.16 73.4468 194.911 82.2577 202.446 92.7543C204.372 95.4374 206.148 98.2232 207.758 101.114Z" fill="url(#paint0_radial)"/>
<defs>
<radialGradient id="paint0_radial" cx="0" cy="0" r="1" gradientUnits="userSpaceOnUse" gradientTransform="translate(120.5 199.5) rotate(-90) scale(200.5 161.454)">
<stop stop-color="#33FDD8"/>
<stop offset="0.614614" stop-color="#7A4AFF"/>
<stop offset="1" stop-color="#45108A"/>
</radialGradient>
</defs>
</svg>
