<?xml version="1.0" encoding="UTF-8"?>
<svg xmlns="http://www.w3.org/2000/svg" xmlns:xlink="http://www.w3.org/1999/xlink" width="50px" height="61px" viewBox="0 0 50 60" version="1.1">
<defs>
<radialGradient id="radial0" gradientUnits="userSpaceOnUse" cx="0" cy="0" fx="0" fy="0" r="1" gradientTransform="matrix(0.000000000000002453,-39.605338,32.2647,0.000000000000001953,24.121,39.422669)">
<stop offset="0" style="stop-color:rgb(20%,99.215686%,84.705882%);stop-opacity:1;"/>
<stop offset="0.614614" style="stop-color:rgb(47.843137%,29.019608%,100%);stop-opacity:1;"/>
<stop offset="1" style="stop-color:rgb(27.058824%,6.27451%,54.117647%);stop-opacity:1;"/>
</radialGradient>
</defs>
<g id="surface1">
<path style=" stroke:none;fill-rule:nonzero;fill:rgb(100%,100%,100%);fill-opacity:1;" d="M 10.152344 45.640625 L 10.152344 43.996094 L 2.242188 43.996094 L 2.242188 55.734375 L 4.113281 55.734375 L 4.113281 50.746094 L 9.636719 50.746094 L 9.636719 49.167969 L 4.113281 49.167969 L 4.113281 45.640625 Z M 13.796875 45.132812 C 13.796875 44.519531 13.335938 44.113281 12.683594 44.113281 C 12.011719 44.113281 11.566406 44.519531 11.566406 45.132812 C 11.566406 45.726562 12.011719 46.148438 12.683594 46.148438 C 13.335938 46.148438 13.796875 45.726562 13.796875 45.132812 Z M 11.808594 47.386719 L 11.808594 55.734375 L 13.558594 55.734375 L 13.558594 47.386719 Z M 17.359375 55.734375 L 17.359375 50.761719 C 17.359375 49.507812 18.132812 48.847656 19.4375 48.847656 L 19.4375 47.386719 C 17 47.386719 15.59375 48.574219 15.59375 50.609375 L 15.59375 55.734375 Z M 29.03125 51.578125 C 29.015625 49.050781 27.144531 47.234375 24.535156 47.234375 C 21.929688 47.234375 20.023438 49.050781 20.023438 51.558594 C 20.023438 54.070312 21.929688 55.886719 24.535156 55.886719 C 26.613281 55.886719 28.414062 54.5625 28.894531 52.714844 L 27.109375 52.714844 C 26.785156 53.714844 25.753906 54.460938 24.554688 54.460938 C 23.09375 54.460938 21.996094 53.492188 21.773438 52.101562 L 28.980469 52.101562 C 29.015625 51.933594 29.03125 51.746094 29.03125 51.578125 Z M 24.554688 48.660156 C 25.945312 48.660156 27.042969 49.523438 27.332031 50.761719 L 21.824219 50.761719 C 22.132812 49.523438 23.179688 48.660156 24.554688 48.660156 Z M 33.96875 45.320312 C 34.160156 45.320312 34.398438 45.351562 34.621094 45.4375 L 34.621094 43.910156 C 34.398438 43.859375 34.140625 43.84375 33.953125 43.84375 C 32.339844 43.84375 31.207031 44.84375 31.207031 46.269531 L 31.207031 47.386719 L 29.988281 47.386719 L 29.988281 48.847656 L 31.207031 48.847656 L 31.207031 55.734375 L 32.957031 55.734375 L 32.957031 48.847656 L 34.621094 48.847656 L 34.621094 47.386719 L 32.957031 47.386719 L 32.957031 46.269531 C 32.957031 45.691406 33.386719 45.320312 33.96875 45.320312 Z M 36.261719 43.996094 L 36.261719 55.734375 L 38.011719 55.734375 L 38.011719 43.996094 Z M 46.070312 47.386719 L 46.070312 51.917969 C 46.070312 53.257812 45.230469 54.136719 43.925781 54.136719 C 42.65625 54.136719 41.832031 53.257812 41.832031 51.917969 L 41.832031 47.386719 L 40.082031 47.386719 L 40.082031 52.152344 C 40.082031 54.171875 41.488281 55.53125 43.394531 55.53125 C 44.578125 55.53125 45.519531 55.019531 46.070312 54.136719 L 46.070312 55.699219 C 46.070312 57.039062 45.246094 57.886719 43.976562 57.886719 C 42.808594 57.886719 42.019531 57.125 41.917969 55.9375 L 40.285156 55.917969 C 40.457031 57.921875 41.933594 59.277344 44.042969 59.277344 C 46.308594 59.277344 47.835938 57.800781 47.835938 55.597656 L 47.835938 47.386719 Z M 46.070312 47.386719 "/>
<path style="fill:none;stroke-width:23.9806;stroke-linecap:round;stroke-linejoin:round;stroke:rgb(34.117647%,14.117647%,69.411765%);stroke-opacity:1;stroke-miterlimit:10;" d="M 215.078125 31.02181 L 204.257812 12.132096 " transform="matrix(0.1,0,0,0.0988468,0,0)"/>
<path style="fill:none;stroke-width:23.9806;stroke-linecap:round;stroke-linejoin:round;stroke:rgb(34.117647%,14.117647%,69.411765%);stroke-opacity:1;stroke-miterlimit:10;" d="M 285.390625 31.02181 L 296.210938 12.132096 " transform="matrix(0.1,0,0,0.0988468,0,0)"/>
<path style=" stroke:none;fill-rule:evenodd;fill:url(#radial0);" d="M 20.929688 10.9375 C 21.359375 9.085938 23.035156 7.707031 25.027344 7.707031 C 27.019531 7.707031 28.691406 9.085938 29.121094 10.933594 C 27.421875 11.390625 25.976562 12.449219 25.023438 13.863281 C 24.074219 12.449219 22.628906 11.390625 20.929688 10.9375 Z M 18.53125 10.691406 C 19.097656 7.648438 21.789062 5.335938 25.027344 5.335938 C 28.265625 5.335938 30.957031 7.648438 31.519531 10.691406 L 48.800781 10.691406 C 49.453125 10.691406 49.984375 11.203125 50 11.847656 C 49.871094 11.851562 49.761719 11.851562 49.664062 11.855469 C 49.453125 11.859375 49.203125 11.867188 49.128906 11.867188 C 49.058594 11.871094 49.164062 11.867188 49.664062 11.855469 C 49.84375 11.851562 50 11.847656 50 11.847656 L 50 11.871094 C 50 11.878906 50 11.894531 50 11.910156 C 50 11.941406 50 11.984375 49.996094 12.035156 C 49.996094 12.136719 49.988281 12.28125 49.972656 12.457031 C 49.941406 12.8125 49.875 13.304688 49.734375 13.890625 C 49.453125 15.0625 48.871094 16.617188 47.679688 18.167969 C 46.550781 19.636719 44.914062 21.050781 42.570312 22.136719 C 43.519531 24.628906 43.871094 27.457031 43.425781 30.660156 C 43.359375 31.140625 43 31.53125 42.523438 31.648438 L 42.238281 30.496094 C 42.523438 31.648438 42.523438 31.648438 42.523438 31.648438 L 42.515625 31.648438 L 42.507812 31.652344 C 42.5 31.652344 42.488281 31.65625 42.472656 31.660156 C 42.445312 31.667969 42.410156 31.675781 42.359375 31.683594 C 42.265625 31.703125 42.132812 31.730469 41.964844 31.757812 C 41.625 31.8125 41.144531 31.878906 40.550781 31.921875 C 39.363281 32.007812 37.714844 32.003906 35.84375 31.648438 C 34.484375 31.386719 33.011719 30.941406 31.523438 30.214844 C 30.570312 32.71875 28.820312 35.378906 25.617188 37.191406 C 25.246094 37.402344 24.792969 37.402344 24.425781 37.191406 C 21.222656 35.378906 19.46875 32.722656 18.519531 30.21875 C 17.035156 30.945312 15.566406 31.386719 14.207031 31.648438 C 12.335938 32.003906 10.6875 32.007812 9.5 31.921875 C 8.90625 31.878906 8.425781 31.8125 8.089844 31.757812 C 7.917969 31.730469 7.785156 31.703125 7.691406 31.683594 C 7.644531 31.675781 7.605469 31.664062 7.578125 31.660156 C 7.566406 31.65625 7.554688 31.652344 7.546875 31.652344 L 7.535156 31.648438 L 7.527344 31.648438 C 7.527344 31.648438 7.527344 31.648438 7.8125 30.496094 L 7.527344 31.648438 C 7.050781 31.53125 6.695312 31.140625 6.625 30.660156 C 6.179688 27.460938 6.53125 24.628906 7.480469 22.140625 C 5.128906 21.050781 3.492188 19.640625 2.359375 18.167969 C 1.167969 16.617188 0.589844 15.0625 0.308594 13.890625 C 0.167969 13.304688 0.101562 12.8125 0.0664062 12.457031 C 0.0507812 12.28125 0.046875 12.136719 0.0429688 12.035156 C 0.0390625 11.984375 0.0390625 11.941406 0.0390625 11.910156 C 0.0390625 11.894531 0.0390625 11.878906 0.0390625 11.871094 L 0.0390625 11.847656 C 0.0429688 11.847656 0.0429688 11.847656 1.238281 11.875 L 0.0429688 11.847656 C 0.0546875 11.203125 0.589844 10.691406 1.238281 10.691406 Z M 8.488281 19.992188 C 6.457031 19.046875 5.136719 17.859375 4.269531 16.734375 C 3.320312 15.496094 2.863281 14.265625 2.640625 13.34375 C 2.617188 13.246094 2.597656 13.152344 2.578125 13.0625 L 15.183594 13.0625 C 13.007812 14.523438 11.058594 16.261719 9.554688 18.335938 C 9.167969 18.867188 8.8125 19.417969 8.488281 19.992188 Z M 10.757812 20.84375 C 10.988281 20.457031 11.238281 20.082031 11.5 19.71875 C 13.488281 16.980469 16.441406 14.816406 19.792969 13.117188 C 22.078125 13.472656 23.828125 15.433594 23.828125 17.796875 C 23.828125 18.449219 24.363281 18.980469 25.027344 18.980469 C 25.6875 18.980469 26.226562 18.449219 26.226562 17.796875 C 26.226562 15.425781 27.976562 13.46875 30.253906 13.117188 C 33.609375 14.816406 36.558594 16.980469 38.550781 19.71875 C 38.8125 20.082031 39.058594 20.457031 39.289062 20.839844 C 37.230469 21.453125 34.640625 21.839844 31.390625 21.839844 C 31.050781 21.839844 30.730469 21.980469 30.5 22.230469 C 30.273438 22.480469 30.164062 22.8125 30.199219 23.144531 L 30.199219 23.15625 C 30.199219 23.167969 30.203125 23.1875 30.203125 23.214844 C 30.207031 23.269531 30.214844 23.355469 30.21875 23.472656 C 30.230469 23.699219 30.238281 24.039062 30.222656 24.460938 C 30.207031 25.019531 30.15625 25.71875 30.035156 26.496094 C 28.628906 25.402344 27.265625 23.933594 26.050781 21.96875 C 25.832031 21.617188 25.445312 21.402344 25.027344 21.402344 C 24.609375 21.402344 24.222656 21.617188 24.003906 21.96875 C 22.785156 23.9375 21.417969 25.40625 20.007812 26.503906 C 19.882812 25.722656 19.832031 25.023438 19.816406 24.460938 C 19.804688 24.039062 19.8125 23.699219 19.820312 23.472656 C 19.828125 23.355469 19.832031 23.269531 19.835938 23.214844 C 19.839844 23.1875 19.839844 23.167969 19.839844 23.15625 L 19.84375 23.144531 C 19.875 22.808594 19.765625 22.480469 19.539062 22.230469 C 19.3125 21.980469 18.988281 21.839844 18.648438 21.839844 C 15.402344 21.839844 12.816406 21.453125 10.757812 20.84375 Z M 9.714844 23.003906 C 8.996094 24.902344 8.679688 27.046875 8.902344 29.480469 C 9.121094 29.507812 9.382812 29.535156 9.675781 29.558594 C 10.699219 29.628906 12.132812 29.628906 13.753906 29.320312 C 15.027344 29.078125 16.421875 28.644531 17.832031 27.90625 C 17.542969 26.589844 17.445312 25.410156 17.417969 24.53125 C 17.414062 24.414062 17.414062 24.300781 17.414062 24.191406 C 14.347656 24.101562 11.8125 23.664062 9.714844 23.003906 Z M 20.625 29 C 21.335938 31.070312 22.644531 33.226562 25.019531 34.773438 C 27.398438 33.222656 28.707031 31.066406 29.417969 28.992188 C 27.890625 27.949219 26.390625 26.558594 25.027344 24.714844 C 23.660156 26.5625 22.15625 27.953125 20.625 29 Z M 32.207031 27.902344 C 33.621094 28.644531 35.019531 29.078125 36.296875 29.320312 C 37.917969 29.628906 39.351562 29.628906 40.375 29.558594 C 40.671875 29.535156 40.929688 29.507812 41.148438 29.480469 C 41.371094 27.046875 41.054688 24.902344 40.335938 23 C 38.234375 23.664062 35.695312 24.101562 32.628906 24.191406 C 32.625 24.300781 32.625 24.414062 32.621094 24.53125 C 32.59375 25.40625 32.496094 26.585938 32.207031 27.902344 Z M 41.558594 19.988281 C 43.585938 19.042969 44.90625 17.859375 45.769531 16.734375 C 46.71875 15.496094 47.179688 14.265625 47.398438 13.34375 C 47.421875 13.246094 47.445312 13.152344 47.460938 13.0625 L 34.871094 13.0625 C 37.042969 14.523438 38.992188 16.261719 40.496094 18.335938 C 40.882812 18.867188 41.238281 19.417969 41.558594 19.988281 Z M 41.558594 19.988281 "/>
</g>
</svg>
