<svg width="40" height="29" viewBox="0 0 40 29" fill="none" xmlns="http://www.w3.org/2000/svg">
<path fill-rule="evenodd" clip-rule="evenodd" d="M0 3.63691L3.51985 0H35.944L39.4636 3.62104V24.4106L35.944 28.0317H3.51959L0 24.4106V3.63691ZM5.81755 3.95846L4.44218 5.34264V22.7132L5.81755 24.0974H33.6887L35.0134 22.7109V5.34494L33.6887 3.95846H5.81755Z" fill="white"/>
<path d="M24.6554 17.695C26.4843 17.695 27.967 15.5534 27.967 12.9115C27.967 10.2697 26.4843 8.12811 24.6554 8.12811C22.8264 8.12811 21.3438 10.2697 21.3438 12.9115C21.3438 15.5534 22.8264 17.695 24.6554 17.695Z" fill="white"/>
<path d="M14.8079 17.695C16.6368 17.695 18.1195 15.5534 18.1195 12.9115C18.1195 10.2697 16.6368 8.12811 14.8079 8.12811C12.9789 8.12811 11.4963 10.2697 11.4963 12.9115C11.4963 15.5534 12.9789 17.695 14.8079 17.695Z" fill="white"/>
</svg>
