<svg width="33" height="33" viewBox="0 0 33 33" fill="none" xmlns="http://www.w3.org/2000/svg">
<path fill-rule="evenodd" clip-rule="evenodd" d="M33.1261 16.5C33.1261 25.6127 25.7388 33 16.6261 33C7.5134 33 0.126099 25.6127 0.126099 16.5C0.126099 7.3873 7.5134 0 16.6261 0C25.7388 0 33.1261 7.3873 33.1261 16.5ZM11.4903 9.79552C11.4903 10.8227 10.7081 11.654 9.48503 11.654C8.30957 11.654 7.52744 10.8227 7.55165 9.79552C7.52744 8.7184 8.30955 7.91132 9.50846 7.91132C10.7081 7.91132 11.4668 8.7184 11.4903 9.79552ZM7.64998 25.0863V13.1222H11.3685V25.0863H7.64998ZM14.2506 13.1238C14.2998 14.176 14.3489 15.4482 14.3489 16.9406H14.3504V25.0886H18.069V18.1887C18.069 17.8453 18.1174 17.5034 18.2157 17.2583C18.46 16.5738 19.0712 15.8643 20.0991 15.8643C21.4448 15.8643 21.9826 16.9157 21.9826 18.458V25.0886H25.7011V17.992C25.7011 14.4702 23.8661 12.8553 21.4198 12.8553C19.438 12.8553 18.2149 14.0043 17.7255 14.7629H17.6522L17.4805 13.1238H14.2506Z" fill="white"/>
</svg>
