<svg width="122" height="89" viewBox="0 0 122 89" fill="none" xmlns="http://www.w3.org/2000/svg">
<path d="M29.757 10.388L20.475 38H9.282L0 10.388H9.204L14.898 29.381L20.553 10.388H29.757ZM49.4011 33.827H40.1971L38.8321 38H29.7451L39.8461 10.388H49.8301L59.8921 38H50.7661L49.4011 33.827ZM47.2951 27.314L44.7991 19.631L42.3031 27.314H47.2951ZM70.5172 31.448H78.8632V38H61.8592V10.388H70.5172V31.448ZM90.2457 10.388V38H81.5877V10.388H90.2457ZM105.661 10.388C108.547 10.388 111.069 10.973 113.227 12.143C115.411 13.313 117.088 14.938 118.258 17.018C119.428 19.098 120.013 21.464 120.013 24.116C120.013 26.742 119.428 29.108 118.258 31.214C117.088 33.32 115.411 34.984 113.227 36.206C111.069 37.402 108.547 38 105.661 38H94.1561V10.388H105.661ZM104.881 30.278C106.831 30.278 108.378 29.745 109.522 28.679C110.666 27.613 111.238 26.092 111.238 24.116C111.238 22.14 110.666 20.619 109.522 19.553C108.378 18.487 106.831 17.954 104.881 17.954H102.814V30.278H104.881Z" fill="#007AFF"/>
<path d="M18.642 79L10.608 67.027V79H1.95V51.388H10.608V63.01L18.525 51.388H28.314L18.798 64.609L28.938 79H18.642ZM39.8534 51.388V66.949C39.8534 68.223 40.1264 69.237 40.6724 69.991C41.2444 70.719 42.1544 71.083 43.4024 71.083C44.6504 71.083 45.5734 70.719 46.1714 69.991C46.7694 69.237 47.0684 68.223 47.0684 66.949V51.388H55.6874V66.949C55.6874 69.575 55.1414 71.824 54.0494 73.696C52.9574 75.542 51.4624 76.933 49.5644 77.869C47.6664 78.805 45.5474 79.273 43.2074 79.273C40.8674 79.273 38.7874 78.805 36.9674 77.869C35.1734 76.933 33.7694 75.542 32.7554 73.696C31.7414 71.85 31.2344 69.601 31.2344 66.949V51.388H39.8534ZM77.9077 64.843C79.5717 65.233 80.8587 66.039 81.7687 67.261C82.7047 68.457 83.1727 69.848 83.1727 71.434C83.1727 73.852 82.3667 75.724 80.7547 77.05C79.1687 78.35 76.8807 79 73.8907 79H59.4217V51.388H73.5007C76.3087 51.388 78.5187 51.999 80.1307 53.221C81.7427 54.443 82.5487 56.224 82.5487 58.564C82.5487 60.176 82.1197 61.541 81.2617 62.659C80.4297 63.751 79.3117 64.479 77.9077 64.843ZM68.0797 62.152H71.4337C72.2137 62.152 72.7857 61.996 73.1497 61.684C73.5397 61.372 73.7347 60.891 73.7347 60.241C73.7347 59.565 73.5397 59.071 73.1497 58.759C72.7857 58.421 72.2137 58.252 71.4337 58.252H68.0797V62.152ZM72.0187 72.058C72.7987 72.058 73.3707 71.915 73.7347 71.629C74.1247 71.317 74.3197 70.823 74.3197 70.147C74.3197 68.821 73.5527 68.158 72.0187 68.158H68.0797V72.058H72.0187ZM94.7398 58.291V61.684H103.32V68.197H94.7398V72.097H104.49V79H86.0818V51.388H104.49V58.291H94.7398Z" fill="#FC1683"/>
</svg>
