<svg width="315" height="46" xmlns="http://www.w3.org/2000/svg" version="1.0">

 <g>
  <title>Layer 1</title>
  <g stroke="null" id="svg_33">
   <g stroke="null" id="svg_1" fill="#6F45EA">
    <g stroke="null" id="svg_2">
     <g stroke="null" id="svg_3">
      <path stroke="null" id="svg_4" d="m10.22485,44.31098l-8.93133,-25.85703l8.63097,0l5.05314,17.28644l0.14135,0l5.08847,-17.28644l8.25993,0l-8.88716,25.85703l-9.35537,0zm0,0"/>
     </g>
    </g>
   </g>
   <g stroke="null" id="svg_5" fill="#6F45EA">
    <g stroke="null" id="svg_6">
     <g stroke="null" id="svg_7">
      <path stroke="null" id="svg_8" d="m46.60502,44.31098l-1.0601,-3.64976l-8.81648,0l-1.0601,3.64976l-8.26877,0l9.18752,-25.85703l9.39954,0l9.17868,25.85703l-8.56029,0zm-8.18926,-9.4331l5.44184,0l-2.63258,-9.20612l-0.14135,0l-2.66791,9.20612zm0,0"/>
     </g>
    </g>
   </g>
   <g stroke="null" id="svg_9" fill="#6F45EA">
    <g stroke="null" id="svg_10">
     <g stroke="null" id="svg_11">
      <path stroke="null" id="svg_12" d="m56.10287,18.45395l8.08325,0l0,19.23843l12.91553,0l0,6.6186l-20.99879,0l0,-25.85703zm0,0"/>
     </g>
    </g>
   </g>
   <g stroke="null" id="svg_13" fill="#6F45EA">
    <g stroke="null" id="svg_14">
     <g stroke="null" id="svg_15">
      <path stroke="null" id="svg_16" d="m78.7778,44.31098l0,-25.85703l8.08325,0l0,25.85703l-8.08325,0zm0,0"/>
     </g>
    </g>
   </g>
   <g stroke="null" id="svg_17" fill="#6F45EA">
    <g stroke="null" id="svg_18">
     <g stroke="null" id="svg_19">
      <path stroke="null" id="svg_20" d="m101.44695,18.45395c8.80323,0 13.20706,4.31026 13.20706,12.92851c0,8.62052 -4.40383,12.92851 -13.20706,12.92851l-10.90135,0l0,-25.85703l10.90135,0zm-2.81809,19.65606l2.67675,0c3.38569,0 5.07964,-1.86573 5.07964,-5.60175l0,-2.2516c0,-3.73374 -1.69395,-5.60175 -5.07964,-5.60175l-2.67675,0l0,13.4551zm0,0"/>
     </g>
    </g>
   </g>
   <g stroke="null" id="svg_21" fill="#59FEE0">
    <g stroke="null" id="svg_22">
     <g stroke="null" id="svg_23">
      <path stroke="null" id="svg_24" d="m117.27719,44.31098l0,-25.85703l8.08325,0l0,25.85703l-8.08325,0zm0,0"/>
     </g>
    </g>
   </g>
   <g stroke="null" id="svg_25" fill="#59FEE0">
    <g stroke="null" id="svg_26">
     <g stroke="null" id="svg_27">
      <path stroke="null" id="svg_28" d="m145.90939,44.31098l-1.0601,-3.64976l-8.81648,0l-1.0601,3.64976l-8.26877,0l9.18752,-25.85703l9.39954,0l9.17868,25.85703l-8.56029,0zm-8.18926,-9.4331l5.44184,0l-2.63258,-9.20612l-0.14135,0l-2.66791,9.20612zm0,0"/>
     </g>
    </g>
   </g>
   <g stroke="null" id="svg_29" fill="#59FEE0">
    <g stroke="null" id="svg_30">
     <g stroke="null" id="svg_31">
      <path stroke="null" id="svg_32" d="m167.404,18c3.73243,0 6.68304,0.9601 8.85182,2.87804c2.1732,1.9134 3.25981,4.64845 3.25981,8.20743l-7.72105,0c0,-1.50031 -0.3865,-2.68965 -1.15728,-3.56805c-0.76636,-0.87612 -1.85517,-1.31646 -3.26864,-1.31646c-1.63211,0 -2.83356,0.52658 -3.60433,1.57975c-0.76636,1.05317 -1.14844,2.51943 -1.14844,4.39424l0,2.40594c0,1.85893 0.38208,3.32065 1.14844,4.38516c0.77078,1.06679 1.94793,1.59791 3.53366,1.59791c1.55923,0 2.7408,-0.41309 3.5425,-1.24382c0.80612,-0.82846 1.21028,-1.99284 1.21028,-3.49542l7.46486,0c0,3.53628 -1.05789,6.24409 -3.17146,8.12572c-2.10915,1.87709 -5.08847,2.81449 -8.94016,2.81449c-4.28898,0 -7.53553,-1.12807 -9.74407,-3.38647c-2.20854,-2.25613 -3.31281,-5.58813 -3.31281,-9.99599c0,-4.4124 1.10427,-7.7444 3.31281,-9.996c2.20854,-2.25613 5.45509,-3.38647 9.74407,-3.38647zm0,0"/>
     </g>
    </g>
   </g>
  </g>
 </g>
</svg>