<svg width="228" height="49" viewBox="0 0 228 49" fill="none" xmlns="http://www.w3.org/2000/svg">
<path d="M29.757 10.388L20.475 38H9.282L0 10.388H9.204L14.898 29.381L20.553 10.388H29.757ZM49.4011 33.827H40.1971L38.8321 38H29.7451L39.8461 10.388H49.8301L59.8921 38H50.7661L49.4011 33.827ZM47.2951 27.314L44.7991 19.631L42.3031 27.314H47.2951ZM70.5172 31.448H78.8632V38H61.8592V10.388H70.5172V31.448ZM90.2457 10.388V38H81.5877V10.388H90.2457ZM105.661 10.388C108.547 10.388 111.069 10.973 113.227 12.143C115.411 13.313 117.088 14.938 118.258 17.018C119.428 19.098 120.013 21.464 120.013 24.116C120.013 26.742 119.428 29.108 118.258 31.214C117.088 33.32 115.411 34.984 113.227 36.206C111.069 37.402 108.547 38 105.661 38H94.1561V10.388H105.661ZM104.881 30.278C106.831 30.278 108.378 29.745 109.522 28.679C110.666 27.613 111.238 26.092 111.238 24.116C111.238 22.14 110.666 20.619 109.522 19.553C108.378 18.487 106.831 17.954 104.881 17.954H102.814V30.278H104.881Z" fill="#007AFF"/>
<path d="M140.642 39L132.608 27.027V39H123.95V11.388H132.608V23.01L140.525 11.388H150.314L140.798 24.609L150.938 39H140.642ZM161.853 11.388V26.949C161.853 28.223 162.126 29.237 162.672 29.991C163.244 30.719 164.154 31.083 165.402 31.083C166.65 31.083 167.573 30.719 168.171 29.991C168.769 29.237 169.068 28.223 169.068 26.949V11.388H177.687V26.949C177.687 29.575 177.141 31.824 176.049 33.696C174.957 35.542 173.462 36.933 171.564 37.869C169.666 38.805 167.547 39.273 165.207 39.273C162.867 39.273 160.787 38.805 158.967 37.869C157.173 36.933 155.769 35.542 154.755 33.696C153.741 31.85 153.234 29.601 153.234 26.949V11.388H161.853ZM199.908 24.843C201.572 25.233 202.859 26.039 203.769 27.261C204.705 28.457 205.173 29.848 205.173 31.434C205.173 33.852 204.367 35.724 202.755 37.05C201.169 38.35 198.881 39 195.891 39H181.422V11.388H195.501C198.309 11.388 200.519 11.999 202.131 13.221C203.743 14.443 204.549 16.224 204.549 18.564C204.549 20.176 204.12 21.541 203.262 22.659C202.43 23.751 201.312 24.479 199.908 24.843ZM190.08 22.152H193.434C194.214 22.152 194.786 21.996 195.15 21.684C195.54 21.372 195.735 20.891 195.735 20.241C195.735 19.565 195.54 19.071 195.15 18.759C194.786 18.421 194.214 18.252 193.434 18.252H190.08V22.152ZM194.019 32.058C194.799 32.058 195.371 31.915 195.735 31.629C196.125 31.317 196.32 30.823 196.32 30.147C196.32 28.821 195.553 28.158 194.019 28.158H190.08V32.058H194.019ZM216.74 18.291V21.684H225.32V28.197H216.74V32.097H226.49V39H208.082V11.388H226.49V18.291H216.74Z" fill="#FC1683"/>
</svg>
