<svg width="122" height="89" xmlns="http://www.w3.org/2000/svg" fill="none">

 <g>
  <title>Layer 1</title>
  <g stroke="null" id="svg_1" fill="#0154B1">
   <g stroke="null" id="svg_37">
    <g stroke="null" id="svg_36">
     <path stroke="null" id="svg_35" d="m10.22485,44.31098l-8.93133,-25.85703l8.63097,0l5.05313,17.28644l0.14135,0l5.08847,-17.28644l8.25993,0l-8.88715,25.85703l-9.35537,0zm0,0"/>
    </g>
   </g>
  </g>
  <g stroke="null" id="svg_5" fill="#0154B1">
   <g stroke="null" id="svg_41">
    <g stroke="null" id="svg_40">
     <path stroke="null" id="svg_39" d="m46.60502,44.31098l-1.0601,-3.64976l-8.81648,0l-1.0601,3.64976l-8.26877,0l9.18752,-25.85703l9.39954,0l9.17868,25.85703l-8.56029,0zm-8.18926,-9.4331l5.44184,0l-2.63258,-9.20612l-0.14135,0l-2.66791,9.20612zm0,0"/>
    </g>
   </g>
  </g>
  <g stroke="null" id="svg_9" fill="#0154B1">
   <g stroke="null" id="svg_45">
    <g stroke="null" id="svg_44">
     <path stroke="null" id="svg_43" d="m56.10287,18.45395l8.08325,0l0,19.23843l12.91553,0l0,6.6186l-20.99878,0l0,-25.85703zm0,0"/>
    </g>
   </g>
  </g>
  <g stroke="null" id="svg_13" fill="#0154B1">
   <g stroke="null" id="svg_49">
    <g stroke="null" id="svg_48">
     <path stroke="null" id="svg_47" d="m78.7778,44.31098l0,-25.85703l8.08325,0l0,25.85703l-8.08325,0zm0,0"/>
    </g>
   </g>
  </g>
  <g stroke="null" id="svg_17" fill="#0154B1">
   <g stroke="null" id="svg_53">
    <g stroke="null" id="svg_52">
     <path stroke="null" id="svg_51" d="m101.44695,18.45395c8.80323,0 13.20706,4.31026 13.20706,12.92852c0,8.62052 -4.40383,12.92851 -13.20706,12.92851l-10.90135,0l0,-25.85703l10.90135,0zm-2.8181,19.65606l2.67675,0c3.38569,0 5.07964,-1.86573 5.07964,-5.60175l0,-2.25159c0,-3.73375 -1.69395,-5.60176 -5.07964,-5.60176l-2.67675,0l0,13.4551zm0,0"/>
    </g>
   </g>
  </g>
  <g stroke="null" id="svg_21" fill="#F7D003">
   <g stroke="null" id="svg_57">
    <g stroke="null" id="svg_56">
     <path stroke="null" id="svg_55" d="m8.27719,81.31098l0,-25.85703l8.08325,0l0,25.85703l-8.08325,0zm0,0"/>
    </g>
   </g>
  </g>
  <g stroke="null" id="svg_25" fill="#F7D003">
   <g stroke="null" id="svg_61">
    <g stroke="null" id="svg_60">
     <path stroke="null" id="svg_59" d="m36.90939,81.31098l-1.0601,-3.64976l-8.81648,0l-1.0601,3.64976l-8.26877,0l9.18752,-25.85703l9.39954,0l9.17868,25.85703l-8.56029,0zm-8.18926,-9.4331l5.44183,0l-2.63257,-9.20612l-0.14135,0l-2.66791,9.20612zm0,0"/>
    </g>
   </g>
  </g>
  <g stroke="null" id="svg_29" fill="#F7D003">
   <g stroke="null" id="svg_65">
    <g stroke="null" id="svg_64">
     <path stroke="null" id="svg_63" d="m58.404,55c3.73243,0 6.68304,0.9601 8.85182,2.87804c2.17321,1.91341 3.25981,4.64846 3.25981,8.20743l-7.72105,0c0,-1.5003 -0.3865,-2.68965 -1.15728,-3.56805c-0.76636,-0.87612 -1.85517,-1.31646 -3.26863,-1.31646c-1.63211,0 -2.83356,0.52659 -3.60434,1.57975c-0.76636,1.05317 -1.14844,2.51943 -1.14844,4.39424l0,2.40594c0,1.85893 0.38208,3.32065 1.14844,4.38517c0.77078,1.06678 1.94793,1.5979 3.53366,1.5979c1.55923,0 2.7408,-0.41309 3.5425,-1.24382c0.80612,-0.82846 1.21028,-1.99285 1.21028,-3.49542l7.46486,0c0,3.53627 -1.05789,6.24409 -3.17146,8.12572c-2.10916,1.87708 -5.08848,2.81449 -8.94017,2.81449c-4.28898,0 -7.53553,-1.12807 -9.74407,-3.38647c-2.20853,-2.25614 -3.31281,-5.58813 -3.31281,-9.99599c0,-4.41241 1.10428,-7.74441 3.31281,-9.996c2.20854,-2.25613 5.45509,-3.38647 9.74407,-3.38647zm0,0"/>
    </g>
   </g>
  </g>
 </g>
</svg>