<svg xmlns="http://www.w3.org/2000/svg" viewBox="0 0 178.22 26.76"><defs><style>.cls-1{fill:#0154b1;}.cls-2{fill:#f7d003;}</style></defs><g id="Layer_2" data-name="Layer 2"><g id="Layer_1-2" data-name="Layer 1"><g id="svg_33" data-name="svg 33"><g id="svg_1" data-name="svg 1"><g id="svg_2" data-name="svg 2"><g id="svg_3" data-name="svg 3"><path id="svg_4" data-name="svg 4" class="cls-1" d="M8.93,26.31,0,.45H8.63l5,17.29h.15L18.91.45h8.26L18.29,26.31Z"/></g></g></g><g id="svg_5" data-name="svg 5"><g id="svg_6" data-name="svg 6"><g id="svg_7" data-name="svg 7"><path id="svg_8" data-name="svg 8" class="cls-1" d="M45.31,26.31l-1.06-3.65H35.43l-1.06,3.65H26.11L35.29.45h9.4l9.18,25.86Zm-8.19-9.43h5.44L39.93,7.67h-.14Z"/></g></g></g><g id="svg_9" data-name="svg 9"><g id="svg_10" data-name="svg 10"><g id="svg_11" data-name="svg 11"><path id="svg_12" data-name="svg 12" class="cls-1" d="M54.81.45h8.08V19.69H75.81v6.62h-21V.45Z"/></g></g></g><g id="svg_13" data-name="svg 13"><g id="svg_14" data-name="svg 14"><g id="svg_15" data-name="svg 15"><path id="svg_16" data-name="svg 16" class="cls-1" d="M77.48,26.31V.45h8.09V26.31Z"/></g></g></g><g id="svg_17" data-name="svg 17"><g id="svg_18" data-name="svg 18"><g id="svg_19" data-name="svg 19"><path id="svg_20" data-name="svg 20" class="cls-1" d="M100.15.45q13.21,0,13.21,12.93T100.15,26.31H89.25V.45ZM97.34,20.11H100q5.08,0,5.08-5.6V12.26q0-5.61-5.08-5.61H97.34Z"/></g></g></g><g id="svg_21" data-name="svg 21"><g id="svg_22" data-name="svg 22"><g id="svg_23" data-name="svg 23"><path id="svg_24" data-name="svg 24" class="cls-2" d="M116,26.31V.45h8.09V26.31Z"/></g></g></g><g id="svg_25" data-name="svg 25"><g id="svg_26" data-name="svg 26"><g id="svg_27" data-name="svg 27"><path id="svg_28" data-name="svg 28" class="cls-2" d="M144.62,26.31l-1.06-3.65h-8.82l-1.06,3.65h-8.27L134.6.45H144l9.18,25.86Zm-8.19-9.43h5.44l-2.63-9.21h-.15l-2.66,9.21Z"/></g></g></g><g id="svg_29" data-name="svg 29"><g id="svg_30" data-name="svg 30"><g id="svg_31" data-name="svg 31"><path id="svg_32" data-name="svg 32" class="cls-2" d="M166.11,0q5.59,0,8.85,2.88c2.18,1.91,3.26,4.65,3.26,8.21H170.5a5.23,5.23,0,0,0-1.16-3.57,4.08,4.08,0,0,0-3.26-1.32,4.18,4.18,0,0,0-3.61,1.58,7.32,7.32,0,0,0-1.15,4.39v2.41A7.38,7.38,0,0,0,162.47,19,4.08,4.08,0,0,0,166,20.56a4.72,4.72,0,0,0,3.55-1.24,4.83,4.83,0,0,0,1.21-3.5h7.46q0,5.31-3.17,8.13c-2.11,1.88-5.09,2.81-8.94,2.81q-6.44,0-9.74-3.38t-3.32-10q0-6.61,3.32-10T166.11,0Z"/></g></g></g></g></g></g></svg>