<svg width="107" height="39" viewBox="0 0 107 39" fill="none" xmlns="http://www.w3.org/2000/svg">
<path d="M4.95215 11.3477H2.29297V10.2744H4.95215C5.46712 10.2744 5.88411 10.1924 6.20312 10.0283C6.52214 9.86426 6.75456 9.63639 6.90039 9.34473C7.05078 9.05306 7.12598 8.72038 7.12598 8.34668C7.12598 8.00488 7.05078 7.68359 6.90039 7.38281C6.75456 7.08203 6.52214 6.84049 6.20312 6.6582C5.88411 6.47135 5.46712 6.37793 4.95215 6.37793H2.60059V15.251H1.28125V5.29785H4.95215C5.7041 5.29785 6.33984 5.42773 6.85938 5.6875C7.37891 5.94727 7.77311 6.30729 8.04199 6.76758C8.31087 7.22331 8.44531 7.74512 8.44531 8.33301C8.44531 8.97103 8.31087 9.51562 8.04199 9.9668C7.77311 10.418 7.37891 10.762 6.85938 10.999C6.33984 11.2314 5.7041 11.3477 4.95215 11.3477ZM9.49121 11.6348V11.4775C9.49121 10.9443 9.56868 10.4499 9.72363 9.99414C9.87858 9.53385 10.1019 9.13509 10.3936 8.79785C10.6852 8.45605 11.0384 8.19173 11.4531 8.00488C11.8678 7.81348 12.3327 7.71777 12.8477 7.71777C13.3672 7.71777 13.8343 7.81348 14.249 8.00488C14.6683 8.19173 15.0238 8.45605 15.3154 8.79785C15.6117 9.13509 15.8372 9.53385 15.9922 9.99414C16.1471 10.4499 16.2246 10.9443 16.2246 11.4775V11.6348C16.2246 12.168 16.1471 12.6624 15.9922 13.1182C15.8372 13.5739 15.6117 13.9727 15.3154 14.3145C15.0238 14.6517 14.6706 14.916 14.2559 15.1074C13.8457 15.2943 13.3809 15.3877 12.8613 15.3877C12.3418 15.3877 11.8747 15.2943 11.46 15.1074C11.0452 14.916 10.6898 14.6517 10.3936 14.3145C10.1019 13.9727 9.87858 13.5739 9.72363 13.1182C9.56868 12.6624 9.49121 12.168 9.49121 11.6348ZM10.7559 11.4775V11.6348C10.7559 12.0039 10.7992 12.3525 10.8857 12.6807C10.9723 13.0042 11.1022 13.2913 11.2754 13.542C11.4531 13.7926 11.6742 13.9909 11.9385 14.1367C12.2028 14.278 12.5104 14.3486 12.8613 14.3486C13.2077 14.3486 13.5107 14.278 13.7705 14.1367C14.0348 13.9909 14.2536 13.7926 14.4268 13.542C14.5999 13.2913 14.7298 13.0042 14.8164 12.6807C14.9076 12.3525 14.9531 12.0039 14.9531 11.6348V11.4775C14.9531 11.113 14.9076 10.7689 14.8164 10.4453C14.7298 10.1172 14.5977 9.8278 14.4199 9.57715C14.2467 9.32194 14.028 9.12142 13.7637 8.97559C13.5039 8.82975 13.1986 8.75684 12.8477 8.75684C12.5013 8.75684 12.196 8.82975 11.9316 8.97559C11.6719 9.12142 11.4531 9.32194 11.2754 9.57715C11.1022 9.8278 10.9723 10.1172 10.8857 10.4453C10.7992 10.7689 10.7559 11.113 10.7559 11.4775ZM19.6836 13.9385L21.584 7.85449H22.418L22.2539 9.06445L20.3193 15.251H19.5059L19.6836 13.9385ZM18.4053 7.85449L20.0254 14.0068L20.1416 15.251H19.2871L17.1406 7.85449H18.4053ZM24.2363 13.959L25.7812 7.85449H27.0391L24.8926 15.251H24.0449L24.2363 13.959ZM22.6025 7.85449L24.4619 13.8359L24.6738 15.251H23.8672L21.8779 9.05078L21.7139 7.85449H22.6025ZM31.4072 15.3877C30.8923 15.3877 30.4251 15.3011 30.0059 15.1279C29.5911 14.9502 29.2334 14.7018 28.9326 14.3828C28.6364 14.0638 28.4085 13.6855 28.249 13.248C28.0895 12.8105 28.0098 12.332 28.0098 11.8125V11.5254C28.0098 10.9238 28.0986 10.3883 28.2764 9.91895C28.4541 9.44499 28.6956 9.04395 29.001 8.71582C29.3063 8.3877 29.6527 8.13932 30.04 7.9707C30.4274 7.80208 30.8285 7.71777 31.2432 7.71777C31.7718 7.71777 32.2275 7.80892 32.6104 7.99121C32.9977 8.1735 33.3145 8.42871 33.5605 8.75684C33.8066 9.0804 33.9889 9.46322 34.1074 9.90527C34.2259 10.3428 34.2852 10.8213 34.2852 11.3408V11.9082H28.7617V10.876H33.0205V10.7803C33.0023 10.4521 32.9339 10.1331 32.8154 9.82324C32.7015 9.51335 32.5192 9.25814 32.2686 9.05762C32.0179 8.8571 31.6761 8.75684 31.2432 8.75684C30.9561 8.75684 30.6917 8.81836 30.4502 8.94141C30.2087 9.0599 30.0013 9.23763 29.8281 9.47461C29.6549 9.71159 29.5205 10.001 29.4248 10.3428C29.3291 10.6846 29.2812 11.0788 29.2812 11.5254V11.8125C29.2812 12.1634 29.3291 12.4938 29.4248 12.8037C29.5251 13.109 29.6686 13.3779 29.8555 13.6104C30.0469 13.8428 30.277 14.0251 30.5459 14.1572C30.8193 14.2894 31.1292 14.3555 31.4756 14.3555C31.9222 14.3555 32.3005 14.2643 32.6104 14.082C32.9202 13.8997 33.1914 13.6559 33.4238 13.3506L34.1895 13.959C34.0299 14.2005 33.8271 14.4307 33.5811 14.6494C33.335 14.8682 33.0319 15.0459 32.6719 15.1826C32.3164 15.3193 31.8949 15.3877 31.4072 15.3877ZM37.0264 9.0166V15.251H35.7617V7.85449H36.9922L37.0264 9.0166ZM39.3369 7.81348L39.3301 8.98926C39.2253 8.96647 39.125 8.9528 39.0293 8.94824C38.9382 8.93913 38.8333 8.93457 38.7148 8.93457C38.4232 8.93457 38.1657 8.98014 37.9424 9.07129C37.7191 9.16243 37.5299 9.29004 37.375 9.4541C37.2201 9.61816 37.097 9.81413 37.0059 10.042C36.9193 10.2653 36.8623 10.5114 36.835 10.7803L36.4795 10.9854C36.4795 10.5387 36.5228 10.1195 36.6094 9.72754C36.7005 9.33561 36.8395 8.98926 37.0264 8.68848C37.2132 8.38314 37.4502 8.14616 37.7373 7.97754C38.029 7.80436 38.3753 7.71777 38.7764 7.71777C38.8675 7.71777 38.9723 7.72917 39.0908 7.75195C39.2093 7.77018 39.2913 7.79069 39.3369 7.81348ZM43.4385 15.3877C42.9235 15.3877 42.4564 15.3011 42.0371 15.1279C41.6224 14.9502 41.2646 14.7018 40.9639 14.3828C40.6676 14.0638 40.4398 13.6855 40.2803 13.248C40.1208 12.8105 40.041 12.332 40.041 11.8125V11.5254C40.041 10.9238 40.1299 10.3883 40.3076 9.91895C40.4854 9.44499 40.7269 9.04395 41.0322 8.71582C41.3376 8.3877 41.6839 8.13932 42.0713 7.9707C42.4587 7.80208 42.8597 7.71777 43.2744 7.71777C43.8031 7.71777 44.2588 7.80892 44.6416 7.99121C45.029 8.1735 45.3457 8.42871 45.5918 8.75684C45.8379 9.0804 46.0202 9.46322 46.1387 9.90527C46.2572 10.3428 46.3164 10.8213 46.3164 11.3408V11.9082H40.793V10.876H45.0518V10.7803C45.0335 10.4521 44.9652 10.1331 44.8467 9.82324C44.7327 9.51335 44.5505 9.25814 44.2998 9.05762C44.0492 8.8571 43.7074 8.75684 43.2744 8.75684C42.9873 8.75684 42.723 8.81836 42.4814 8.94141C42.2399 9.0599 42.0326 9.23763 41.8594 9.47461C41.6862 9.71159 41.5518 10.001 41.4561 10.3428C41.3604 10.6846 41.3125 11.0788 41.3125 11.5254V11.8125C41.3125 12.1634 41.3604 12.4938 41.4561 12.8037C41.5563 13.109 41.6999 13.3779 41.8867 13.6104C42.0781 13.8428 42.3083 14.0251 42.5771 14.1572C42.8506 14.2894 43.1605 14.3555 43.5068 14.3555C43.9535 14.3555 44.3317 14.2643 44.6416 14.082C44.9515 13.8997 45.2227 13.6559 45.4551 13.3506L46.2207 13.959C46.0612 14.2005 45.8584 14.4307 45.6123 14.6494C45.3662 14.8682 45.0632 15.0459 44.7031 15.1826C44.3477 15.3193 43.9261 15.3877 43.4385 15.3877ZM52.4551 13.8154V4.75098H53.7266V15.251H52.5645L52.4551 13.8154ZM47.4785 11.6348V11.4912C47.4785 10.9261 47.5469 10.4134 47.6836 9.95312C47.8249 9.48828 48.0231 9.08952 48.2783 8.75684C48.5381 8.42415 48.8457 8.16895 49.2012 7.99121C49.5612 7.80892 49.9622 7.71777 50.4043 7.71777C50.8691 7.71777 51.2747 7.7998 51.6211 7.96387C51.972 8.12337 52.2682 8.35807 52.5098 8.66797C52.7559 8.97331 52.9495 9.34245 53.0908 9.77539C53.2321 10.2083 53.3301 10.6982 53.3848 11.2451V11.874C53.3346 12.4163 53.2367 12.904 53.0908 13.3369C52.9495 13.7699 52.7559 14.139 52.5098 14.4443C52.2682 14.7497 51.972 14.9844 51.6211 15.1484C51.2702 15.3079 50.86 15.3877 50.3906 15.3877C49.9577 15.3877 49.5612 15.2943 49.2012 15.1074C48.8457 14.9206 48.5381 14.6585 48.2783 14.3213C48.0231 13.984 47.8249 13.5876 47.6836 13.1318C47.5469 12.6715 47.4785 12.1725 47.4785 11.6348ZM48.75 11.4912V11.6348C48.75 12.0039 48.7865 12.3503 48.8594 12.6738C48.9368 12.9974 49.0553 13.2822 49.2148 13.5283C49.3743 13.7744 49.5771 13.9681 49.8232 14.1094C50.0693 14.2461 50.3633 14.3145 50.7051 14.3145C51.1243 14.3145 51.4684 14.2256 51.7373 14.0479C52.0107 13.8701 52.2295 13.6354 52.3936 13.3438C52.5576 13.0521 52.6852 12.7354 52.7764 12.3936V10.7461C52.7217 10.4954 52.6419 10.2539 52.5371 10.0215C52.4368 9.78451 52.3047 9.57487 52.1406 9.39258C51.9811 9.20573 51.7829 9.05762 51.5459 8.94824C51.3135 8.83887 51.0378 8.78418 50.7188 8.78418C50.3724 8.78418 50.0739 8.8571 49.8232 9.00293C49.5771 9.14421 49.3743 9.34017 49.2148 9.59082C49.0553 9.83691 48.9368 10.124 48.8594 10.4521C48.7865 10.7757 48.75 11.1221 48.75 11.4912ZM59.1611 4.75098H60.4326V13.8154L60.3232 15.251H59.1611V4.75098ZM65.4297 11.4912V11.6348C65.4297 12.1725 65.3659 12.6715 65.2383 13.1318C65.1107 13.5876 64.9238 13.984 64.6777 14.3213C64.4316 14.6585 64.1309 14.9206 63.7754 15.1074C63.4199 15.2943 63.012 15.3877 62.5518 15.3877C62.0824 15.3877 61.6699 15.3079 61.3145 15.1484C60.9635 14.9844 60.6673 14.7497 60.4258 14.4443C60.1842 14.139 59.9906 13.7699 59.8447 13.3369C59.7035 12.904 59.6055 12.4163 59.5508 11.874V11.2451C59.6055 10.6982 59.7035 10.2083 59.8447 9.77539C59.9906 9.34245 60.1842 8.97331 60.4258 8.66797C60.6673 8.35807 60.9635 8.12337 61.3145 7.96387C61.6654 7.7998 62.0732 7.71777 62.5381 7.71777C63.0029 7.71777 63.4154 7.80892 63.7754 7.99121C64.1354 8.16895 64.4362 8.42415 64.6777 8.75684C64.9238 9.08952 65.1107 9.48828 65.2383 9.95312C65.3659 10.4134 65.4297 10.9261 65.4297 11.4912ZM64.1582 11.6348V11.4912C64.1582 11.1221 64.124 10.7757 64.0557 10.4521C63.9873 10.124 63.8779 9.83691 63.7275 9.59082C63.5771 9.34017 63.3789 9.14421 63.1328 9.00293C62.8867 8.8571 62.5837 8.78418 62.2236 8.78418C61.9046 8.78418 61.6266 8.83887 61.3896 8.94824C61.1572 9.05762 60.959 9.20573 60.7949 9.39258C60.6309 9.57487 60.4964 9.78451 60.3916 10.0215C60.2913 10.2539 60.2161 10.4954 60.166 10.7461V12.3936C60.2389 12.7126 60.3574 13.0202 60.5215 13.3164C60.6901 13.6081 60.9134 13.8473 61.1914 14.0342C61.474 14.221 61.8226 14.3145 62.2373 14.3145C62.5791 14.3145 62.8708 14.2461 63.1123 14.1094C63.3584 13.9681 63.5566 13.7744 63.707 13.5283C63.862 13.2822 63.9759 12.9974 64.0488 12.6738C64.1217 12.3503 64.1582 12.0039 64.1582 11.6348ZM69.0254 14.4854L71.083 7.85449H72.4365L69.4697 16.3926C69.4014 16.5749 69.3102 16.7708 69.1963 16.9805C69.0869 17.1947 68.9456 17.3975 68.7725 17.5889C68.5993 17.7803 68.3896 17.9352 68.1436 18.0537C67.902 18.1768 67.6126 18.2383 67.2754 18.2383C67.1751 18.2383 67.0475 18.2246 66.8926 18.1973C66.7376 18.1699 66.6283 18.1471 66.5645 18.1289L66.5576 17.1035C66.5941 17.1081 66.651 17.1126 66.7285 17.1172C66.8105 17.1263 66.8675 17.1309 66.8994 17.1309C67.1865 17.1309 67.4303 17.0921 67.6309 17.0146C67.8314 16.9417 68 16.8164 68.1367 16.6387C68.278 16.4655 68.3988 16.2262 68.499 15.9209L69.0254 14.4854ZM67.5146 7.85449L69.4355 13.5967L69.7637 14.9297L68.8545 15.3945L66.1338 7.85449H67.5146Z" fill="white"/>
<path d="M39.9 25.9839L38.5357 27.4127L37.1932 25.9839H32.3158L30.69 27.7297V25.9839H28.1357V38.749H30.8468V29.8148L32.2896 28.3101H35.4105L36.1602 29.0781V38.749H38.8714V29.3147L39.8477 28.3101H43.4349L44.1847 29.0781V38.749H46.8915V28.2566L44.7251 25.9839H39.9Z" fill="white"/>
<path d="M12.838 25.9839H9.25074L3.83277 31.4533V20.251H1.12598V38.7489H3.83277V34.4135L5.97728 32.4311L10.2576 38.7489H13.5876L7.91256 30.6094L12.838 25.9839Z" fill="white"/>
<path d="M16.2024 25.9839L14.0361 28.2566V36.4764L16.2024 38.749H23.608L25.7743 36.4764V28.2566L23.608 25.9839H16.2024ZM23.0413 35.6548L22.3178 36.4227H17.4927L16.7734 35.6548V29.0781L17.497 28.3101H22.3221L23.0457 29.0781V35.6548H23.0413Z" fill="white"/>
<path d="M87.5813 25.9839L85.415 28.2566V36.4764L87.5813 38.749H94.9867L97.153 36.4764V28.2566L94.9867 25.9839H87.5813ZM94.4205 35.6548L93.6968 36.4227H88.8718L88.1481 35.6548V29.0781L88.8718 28.3101H93.6968L94.4205 29.0781V35.6548Z" fill="white"/>
<path d="M103.874 25.9839L102.07 27.886V25.9839H99.5156V38.749H102.227V30.1094L103.67 28.6272H107V25.9839H103.874Z" fill="white"/>
<path d="M51.2473 25.9839L49.0811 28.2566V36.4764L51.2473 38.749H67.2525L69.4187 36.4764V28.2566L67.2525 25.9839H51.2473ZM66.6819 35.6548L65.9581 36.4227H52.5332L51.8096 35.6548V29.0781L52.5332 28.3101H65.9581L66.6819 29.0781V35.6548Z" fill="white"/>
<path d="M80.3195 27.5689L78.8239 25.9839H73.6633L71.4971 28.2565V36.4763L73.6633 38.7489H78.8239L80.3195 37.1906V38.7489H83.0258V20.251H80.3195V27.5689ZM80.3195 34.9448L78.8764 36.4227H74.9539L74.2039 35.6547V29.078L74.9539 28.31H78.8764L80.3195 29.8147V34.9448Z" fill="white"/>
</svg>
