<svg width="33" height="33" viewBox="0 0 33 33" fill="none" xmlns="http://www.w3.org/2000/svg">
<path fill-rule="evenodd" clip-rule="evenodd" d="M16.6261 33C25.7388 33 33.1261 25.6127 33.1261 16.5C33.1261 7.3873 25.7388 0 16.6261 0C7.5134 0 0.126099 7.3873 0.126099 16.5C0.126099 25.6127 7.5134 33 16.6261 33ZM24.1931 10.7941C25.0148 10.6958 25.7982 10.478 26.5261 10.1546C25.9816 10.969 25.2926 11.6844 24.4981 12.2586C24.5066 12.4321 24.5099 12.6077 24.5099 12.7839C24.5099 18.1513 20.4241 24.341 12.9528 24.341C10.6588 24.341 8.52382 23.6679 6.7261 22.5156C7.04354 22.5539 7.36691 22.573 7.69557 22.573C9.59889 22.573 11.3504 21.923 12.7403 20.834C10.963 20.801 9.46228 19.6263 8.94553 18.0127C9.19367 18.0602 9.44842 18.086 9.71042 18.086C10.0807 18.086 10.4397 18.0358 10.7802 17.9434C8.92309 17.5692 7.522 15.9279 7.522 13.9593V13.9085C8.07043 14.2127 8.69607 14.3955 9.36262 14.4166C8.27172 13.688 7.55566 12.4447 7.55566 11.0357C7.55566 10.2912 7.75563 9.59367 8.10541 8.99377C10.109 11.4514 13.1019 13.069 16.4783 13.2379C16.409 12.9403 16.3727 12.6301 16.3727 12.312C16.3727 10.0688 18.1915 8.25 20.4347 8.25C21.6022 8.25 22.6588 8.74365 23.3999 9.53295C24.3245 9.35015 25.195 9.01291 25.979 8.54698C25.6761 9.49533 25.032 10.2912 24.1931 10.7941Z" fill="white"/>
</svg>
